<svg width="48" height="49" viewBox="0 0 48 49" fill="none" xmlns="http://www.w3.org/2000/svg">
<path d="M23.9999 0.230042C19.2888 0.230042 14.6834 1.62706 10.7662 4.24444C6.84908 6.86181 3.79601 10.582 1.99313 14.9345C0.190253 19.2871 -0.281463 24.0765 0.637637 28.6971C1.55674 33.3177 3.82537 37.562 7.15666 40.8933C10.4879 44.2246 14.7322 46.4933 19.3529 47.4124C23.9735 48.3315 28.7629 47.8597 33.1154 46.0569C37.468 44.254 41.1881 41.2009 43.8055 37.2837C46.4229 33.3666 47.8199 28.7612 47.8199 24.0501C47.8136 17.7345 45.3019 11.6795 40.8362 7.21378C36.3704 2.74804 30.3154 0.236395 23.9999 0.230042ZM23.9999 44.8701C19.8821 44.8701 15.8568 43.649 12.4329 41.3613C9.00914 39.0735 6.34059 35.8219 4.76477 32.0175C3.18896 28.2132 2.77665 24.027 3.57999 19.9883C4.38334 15.9496 6.36625 12.2398 9.27798 9.32808C12.1897 6.41635 15.8994 4.43344 19.9381 3.63009C23.9768 2.82675 28.163 3.23906 31.9674 4.81487C35.7717 6.39069 39.0234 9.05924 41.3111 12.4831C43.5988 15.9069 44.8199 19.9322 44.8199 24.0501C44.8136 29.5699 42.618 34.8619 38.7149 38.765C34.8117 42.6681 29.5198 44.8637 23.9999 44.8701Z" fill="black"/>
<path d="M33.8759 14.9781C32.1239 15.2541 30.3719 15.4461 28.6079 15.5781C29.2918 14.6405 29.6615 13.5106 29.6639 12.3501C29.6988 11.5979 29.5809 10.8465 29.3171 10.1412C29.0533 9.43597 28.6493 8.79154 28.1294 8.2469C27.6095 7.70227 26.9845 7.26874 26.2922 6.97254C25.6 6.67634 24.8548 6.52362 24.1019 6.52362C23.3489 6.52362 22.6038 6.67634 21.9115 6.97254C21.2193 7.26874 20.5943 7.70227 20.0744 8.2469C19.5545 8.79154 19.1504 9.43597 18.8866 10.1412C18.6229 10.8465 18.5049 11.5979 18.5399 12.3501C18.5422 13.5106 18.9119 14.6405 19.5959 15.5781C17.8319 15.4461 16.0679 15.2541 14.3159 14.9781C13.5949 14.8379 12.8483 14.9217 12.1763 15.2181C11.5043 15.5145 10.939 16.0094 10.5563 16.6363C10.1736 17.2632 9.99185 17.9921 10.0354 18.7253C10.0789 19.4585 10.3457 20.1608 10.7999 20.738C11.0813 21.1306 11.4387 21.4625 11.8511 21.714C12.2634 21.9655 12.7221 22.1315 13.1999 22.202C15.2039 22.526 17.2799 22.7541 19.3919 22.8981V24.7581L13.1999 34.4901C12.9399 34.8958 12.7623 35.3489 12.6774 35.8233C12.5924 36.2977 12.6018 36.7841 12.7048 37.2549C12.913 38.2057 13.4904 39.0349 14.3099 39.56C15.1294 40.0852 16.124 40.2632 17.0748 40.0551C17.5456 39.952 17.9914 39.7572 18.3869 39.4818C18.7825 39.2064 19.1199 38.8558 19.3799 38.45L23.9999 31.106L28.6439 38.45C28.9017 38.859 29.238 39.2128 29.6333 39.4911C30.0287 39.7694 30.4752 39.9665 30.9472 40.0713C31.4192 40.176 31.9072 40.1861 32.3831 40.1012C32.8591 40.0162 33.3134 39.8378 33.72 39.5763C34.1266 39.3147 34.4774 38.9752 34.752 38.5774C35.0266 38.1795 35.2197 37.7312 35.3201 37.2583C35.4206 36.7853 35.4263 36.2972 35.337 35.8221C35.2477 35.347 35.0651 34.8942 34.7999 34.4901L28.7999 25.046V22.8501C30.9119 22.7061 32.9879 22.4781 34.9919 22.1541C35.9467 21.9949 36.7991 21.463 37.3617 20.6754C37.9243 19.8877 38.151 18.9088 37.9919 17.9541C37.8327 16.9993 37.3008 16.1468 36.5132 15.5842C35.7255 15.0216 34.7467 14.7949 33.7919 14.9541L33.8759 14.9781ZM24.0959 9.78204C24.6066 9.76772 25.11 9.90606 25.5417 10.1794C25.9733 10.4527 26.3137 10.8486 26.5191 11.3164C26.7246 11.7842 26.7858 12.3027 26.695 12.8054C26.6042 13.3082 26.3655 13.7725 26.0094 14.1389C25.6532 14.5053 25.1959 14.7571 24.6959 14.8622C24.1959 14.9672 23.6759 14.9207 23.2025 14.7287C22.729 14.5366 22.3237 14.2077 22.0382 13.784C21.7527 13.3602 21.6001 12.861 21.5999 12.3501C21.5996 11.6813 21.8603 11.0388 22.3264 10.5592C22.7925 10.0796 23.4274 9.80079 24.0959 9.78204ZM34.5599 19.2501C32.143 19.6292 29.7075 19.8776 27.2639 19.9941C26.8787 20.0126 26.5154 20.1787 26.2495 20.4581C25.9835 20.7374 25.8354 21.1084 25.8359 21.4941V25.4901C25.8378 25.7754 25.921 26.0543 26.0759 26.2941L32.2919 36.05C32.3385 36.1233 32.3702 36.205 32.3851 36.2905C32.4001 36.376 32.398 36.4637 32.3791 36.5484C32.3601 36.6331 32.3247 36.7132 32.2747 36.7842C32.2247 36.8552 32.1612 36.9156 32.0879 36.962C31.9391 37.053 31.7608 37.0826 31.5906 37.0445C31.4204 37.0065 31.2717 36.9037 31.1759 36.758L25.2719 27.446C25.1434 27.2413 24.967 27.0709 24.7579 26.9497C24.5489 26.8284 24.3134 26.7599 24.0719 26.75C23.8185 26.7502 23.5693 26.814 23.347 26.9356C23.1247 27.0572 22.9366 27.2328 22.7999 27.446L16.7999 36.806C16.7589 36.8895 16.7007 36.9633 16.6292 37.0227C16.5576 37.0821 16.4743 37.1257 16.3848 37.1507C16.2952 37.1757 16.2014 37.1814 16.1095 37.1676C16.0175 37.1538 15.9295 37.1207 15.8513 37.0705C15.773 37.0203 15.7062 36.9541 15.6553 36.8764C15.6044 36.7986 15.5705 36.7109 15.5558 36.6191C15.5411 36.5273 15.546 36.4334 15.5702 36.3436C15.5943 36.2538 15.6371 36.1701 15.6959 36.0981L22.0919 26.006C22.2486 25.7672 22.332 25.4877 22.3319 25.202V21.4821C22.3323 21.0964 22.1842 20.7254 21.9183 20.4461C21.6524 20.1667 21.2891 20.0006 20.9039 19.9821C18.4725 19.8689 16.0489 19.6245 13.6439 19.2501C13.5576 19.238 13.4748 19.2083 13.4005 19.1629C13.3262 19.1175 13.262 19.0573 13.2119 18.9861C13.1315 18.8818 13.0848 18.7556 13.0779 18.6242C13.071 18.4928 13.1043 18.3624 13.1733 18.2503C13.2424 18.1383 13.3439 18.0499 13.4644 17.997C13.5849 17.9441 13.7187 17.9291 13.8479 17.9541C20.6372 19.0341 27.5546 19.0341 34.3439 17.9541C34.5166 17.9291 34.6924 17.9711 34.8351 18.0715C34.9779 18.1719 35.0769 18.323 35.1119 18.4941C35.1362 18.6671 35.0922 18.8428 34.9892 18.984C34.8861 19.1251 34.7321 19.2205 34.5599 19.2501Z" fill="black"/>
</svg>
