<svg width="48" height="49" viewBox="0 0 48 49" fill="none" xmlns="http://www.w3.org/2000/svg">
<path fill-rule="evenodd" clip-rule="evenodd" d="M11.186 4.04999C12.1091 4.04999 12.8574 4.79831 12.8574 5.72142V9.06428H16.2C17.1231 9.06428 17.8714 9.8126 17.8714 10.7357C17.8714 11.6588 17.1231 12.4071 16.2 12.4071H12.8574V15.75C12.8574 16.6731 12.1091 17.4214 11.186 17.4214C10.2629 17.4214 9.51456 16.6731 9.51456 15.75V12.4071H6.17143C5.24832 12.4071 4.5 11.6588 4.5 10.7357C4.5 9.8126 5.24832 9.06428 6.17143 9.06428H9.51456V5.72142C9.51456 4.79831 10.2629 4.04999 11.186 4.04999ZM22.886 5.16428C21.9629 5.16428 21.2146 5.9126 21.2146 6.83571C21.2146 7.75881 21.9629 8.50714 22.886 8.50714H35.1431C37.9124 8.50714 40.1574 10.7521 40.1574 13.5214V25.7786H29.5714C27.7252 25.7786 26.2286 27.2752 26.2286 29.1214V39.7071H13.9717C11.2024 39.7071 8.95742 37.4622 8.95742 34.6929V22.4357C8.95742 21.5126 8.20909 20.7643 7.28599 20.7643C6.36288 20.7643 5.61456 21.5126 5.61456 22.4357V34.6929C5.61456 39.3084 9.35618 43.05 13.9717 43.05H26.7536C28.379 43.05 29.9378 42.4043 31.0871 41.255L41.7053 30.6369C42.8546 29.4875 43.5003 27.9287 43.5003 26.3033V13.5214C43.5003 8.9059 39.7587 5.16428 35.1431 5.16428H22.886ZM29.5714 38.0432L38.4932 29.1214H29.5714V38.0432Z" fill="#1D1C1D"/>
</svg>
