<svg width="48" height="49" viewBox="0 0 48 49" fill="none" xmlns="http://www.w3.org/2000/svg">
<path d="M45.3842 10.8499C44.8686 10.5564 44.2854 10.402 43.6922 10.402C43.0989 10.402 42.5157 10.5564 42.0002 10.8499L34.8002 15.0499V14.1379C34.8002 12.7853 34.2629 11.4881 33.3065 10.5317C32.3499 9.57523 31.0527 9.0379 29.7002 9.0379H6.00015C4.64754 9.0379 3.35034 9.57523 2.39389 10.5317C1.43747 11.4881 0.900146 12.7853 0.900146 14.1379V35.3898C0.900146 36.0596 1.03206 36.7229 1.28836 37.3416C1.54465 37.9604 1.92033 38.5226 2.39389 38.9961C2.86747 39.4697 3.4297 39.8454 4.04846 40.1016C4.66722 40.358 5.3304 40.4898 6.00015 40.4898H29.6762C30.3479 40.4931 31.0137 40.3635 31.6352 40.1085C32.2568 39.8537 32.8218 39.4785 33.2979 39.0047C33.774 38.5308 34.1519 37.9674 34.4097 37.3472C34.6674 36.7268 34.8002 36.0617 34.8002 35.3898V34.4778L42.0002 38.6298C42.5219 38.9309 43.1139 39.0882 43.7162 39.0858C44.3148 39.0896 44.9034 38.9321 45.4202 38.6298C45.944 38.3331 46.3791 37.902 46.6808 37.3811C46.9824 36.86 47.1396 36.2679 47.1362 35.6658V13.8619C47.1447 13.2482 46.9863 12.6436 46.6776 12.1131C46.3691 11.5825 45.9219 11.1459 45.3842 10.8499ZM31.7762 16.7298V35.3898C31.7762 35.9468 31.5549 36.4809 31.161 36.8748C30.7673 37.2686 30.2331 37.4898 29.6762 37.4898H6.00015C5.44318 37.4898 4.90905 37.2686 4.51522 36.8748C4.1214 36.4809 3.90015 35.9468 3.90015 35.3898V14.1379C3.90331 13.583 4.12596 13.052 4.51945 12.6607C4.91293 12.2695 5.44527 12.0499 6.00015 12.0499H29.6762C30.2331 12.0499 30.7673 12.2712 31.161 12.665C31.5549 13.0588 31.7762 13.593 31.7762 14.1499V16.7298ZM44.1002 35.6658C44.1015 35.7401 44.082 35.8133 44.0438 35.8769C44.0057 35.9405 43.9503 35.9922 43.8842 36.0258C43.8224 36.0681 43.7492 36.0908 43.6742 36.0908C43.5992 36.0908 43.526 36.0681 43.4642 36.0258L34.8002 31.0098V18.5178L43.4882 13.5019C43.55 13.4596 43.6232 13.437 43.6982 13.437C43.7732 13.437 43.8464 13.4596 43.9082 13.5019C43.9743 13.5356 44.0297 13.5873 44.0678 13.6509C44.106 13.7146 44.1255 13.7877 44.1242 13.8619L44.1002 35.6658Z" fill="#1D1C1D"/>
<path d="M25.608 24.302C25.2419 24.1745 24.8403 24.1962 24.4901 24.3623C24.1397 24.5285 23.8689 24.8258 23.736 25.19C23.2955 26.3882 22.4994 27.423 21.4544 28.1562C20.4095 28.8894 19.1654 29.2857 17.8889 29.2923C16.6124 29.2988 15.3642 28.9152 14.3118 28.1927C13.2594 27.4703 12.4528 26.4435 12 25.25C11.8473 24.9131 11.5737 24.6458 11.2333 24.501C10.8928 24.3563 10.5105 24.3447 10.1619 24.4685C9.81334 24.5922 9.52392 24.8423 9.35097 25.1693C9.17802 25.4963 9.13414 25.8762 9.22801 26.234C9.86803 28.0191 11.0439 29.5631 12.5947 30.6545C14.1455 31.746 15.9956 32.3318 17.892 32.3318C19.7885 32.3318 21.6386 31.746 23.1894 30.6545C24.7401 29.5631 25.916 28.0191 26.556 26.234C26.6291 26.0454 26.6622 25.8438 26.6534 25.6419C26.6447 25.4399 26.5941 25.2419 26.5052 25.0604C26.4161 24.8789 26.2904 24.7178 26.136 24.5873C25.9815 24.4568 25.8018 24.3596 25.608 24.302Z" fill="#1D1C1D"/>
<path d="M14.8442 23.438C15.1926 23.4402 15.5338 23.3394 15.8248 23.148C16.116 22.9568 16.344 22.6835 16.48 22.3628C16.6161 22.0421 16.654 21.6882 16.5892 21.3459C16.5244 21.0036 16.3597 20.6882 16.116 20.4393C15.8721 20.1905 15.5601 20.0195 15.2193 19.9478C14.8783 19.8761 14.5238 19.9068 14.2004 20.0363C13.877 20.1657 13.5991 20.3882 13.4019 20.6753C13.2047 20.9625 13.0969 21.3015 13.0922 21.65C13.0874 21.8831 13.1292 22.1147 13.215 22.3314C13.301 22.5482 13.4292 22.7456 13.5924 22.9121C13.7556 23.0786 13.9503 23.2109 14.1653 23.3012C14.3802 23.3915 14.611 23.438 14.8442 23.438Z" fill="#1D1C1D"/>
<path d="M20.5558 23.438C20.9041 23.4402 21.2454 23.3394 21.5365 23.148C21.8277 22.9568 22.0555 22.6835 22.1916 22.3628C22.3276 22.0421 22.3657 21.6882 22.3009 21.3459C22.2361 21.0036 22.0714 20.6882 21.8277 20.4393C21.5838 20.1905 21.2718 20.0195 20.9308 19.9478C20.59 19.8761 20.2354 19.9068 19.912 20.0363C19.5886 20.1657 19.3108 20.3882 19.1136 20.6753C18.9163 20.9625 18.8086 21.3015 18.8038 21.65C18.799 21.8831 18.8407 22.1147 18.9267 22.3314C19.0126 22.5482 19.1409 22.7456 19.3041 22.9121C19.4673 23.0786 19.662 23.2109 19.8769 23.3012C20.0919 23.3915 20.3227 23.438 20.5558 23.438Z" fill="#1D1C1D"/>
</svg>
