<svg width="48" height="49" viewBox="0 0 48 49" fill="none" xmlns="http://www.w3.org/2000/svg">
<path d="M38.3998 4.64599H25.1158L26.2558 3.44599C26.5105 3.1595 26.6458 2.78638 26.6341 2.40325C26.6222 2.0201 26.4643 1.65602 26.1923 1.38574C25.9205 1.11546 25.5556 0.959499 25.1725 0.949875C24.7892 0.940251 24.4169 1.0777 24.1318 1.33399L20.5318 4.93399C20.3921 5.07332 20.2813 5.23885 20.2057 5.42108C20.1301 5.60332 20.0911 5.79869 20.0911 5.99599C20.0911 6.1933 20.1301 6.38866 20.2057 6.57089C20.2813 6.75313 20.3921 6.91865 20.5318 7.05799L24.1318 10.658C24.2716 10.799 24.4379 10.9108 24.6214 10.9871C24.8047 11.0633 25.0013 11.1023 25.1998 11.102C25.3967 11.1035 25.5919 11.0649 25.7735 10.9885C25.955 10.9122 26.1191 10.7997 26.2558 10.658C26.3951 10.5197 26.5057 10.3552 26.5811 10.1739C26.6566 9.99269 26.6954 9.79831 26.6954 9.60199C26.6954 9.40567 26.6566 9.2113 26.5811 9.03005C26.5057 8.84882 26.3951 8.6843 26.2558 8.54599L25.3078 7.59799H38.3998C38.9558 7.60114 39.4882 7.82341 39.8813 8.21654C40.2745 8.60969 40.4966 9.14201 40.4998 9.69799V38.45C40.4966 39.006 40.2745 39.5382 39.8813 39.9314C39.4882 40.3245 38.9558 40.5468 38.3998 40.55H32.3998C32.002 40.55 31.6205 40.7081 31.3391 40.9893C31.0579 41.2706 30.8998 41.6522 30.8998 42.05C30.8998 42.4478 31.0579 42.8294 31.3391 43.1106C31.6205 43.3919 32.002 43.55 32.3998 43.55H38.3998C39.7514 43.5468 41.0468 43.0085 42.0026 42.0527C42.9583 41.097 43.4966 39.8016 43.4998 38.45V9.74599C43.4966 8.39435 42.9583 7.099 42.0026 6.14324C41.0468 5.1875 39.7514 4.64915 38.3998 4.64599Z" fill="#1D1C1D"/>
<path d="M23.832 37.394C23.547 37.1376 23.1745 37.0002 22.7914 37.0098C22.4082 37.0194 22.0432 37.1754 21.7714 37.4457C21.4996 37.716 21.3415 38.0801 21.3298 38.4632C21.318 38.8463 21.4533 39.2195 21.708 39.506L22.752 40.55H9.6C9.04401 40.5468 8.51171 40.3245 8.11856 39.9314C7.72541 39.5382 7.50315 39.0059 7.5 38.45V9.74595C7.50315 9.18996 7.72541 8.65764 8.11856 8.2645C8.51171 7.87135 9.04401 7.6491 9.6 7.64595H15.6C15.9978 7.64595 16.3794 7.48791 16.6606 7.2066C16.9419 6.9253 17.1 6.54377 17.1 6.14594C17.1 5.74812 16.9419 5.36658 16.6606 5.08528C16.3794 4.80397 15.9978 4.64594 15.6 4.64594H9.6C8.24836 4.64912 6.95301 5.18745 5.99725 6.1432C5.0415 7.09894 4.50316 8.39432 4.5 9.74595V38.45C4.50316 39.8016 5.0415 41.0969 5.99725 42.0527C6.95301 43.0085 8.24836 43.5468 9.6 43.55H22.8L21.756 44.594C21.5487 44.8029 21.4075 45.0683 21.3501 45.3569C21.2925 45.6456 21.3213 45.9447 21.4324 46.2173C21.5437 46.4897 21.7327 46.7235 21.9759 46.8893C22.219 47.0552 22.5057 47.1458 22.8 47.15C22.9969 47.1513 23.1921 47.1128 23.3736 47.0364C23.5552 46.9601 23.7193 46.8477 23.856 46.706L27.456 43.106C27.5956 42.9666 27.7065 42.801 27.7821 42.6188C27.8577 42.4365 27.8967 42.2412 27.8967 42.044C27.8967 41.8466 27.8577 41.6513 27.7821 41.469C27.7065 41.2868 27.5956 41.1213 27.456 40.982L23.832 37.394Z" fill="#1D1C1D"/>
<path d="M22.2841 14.0778C21.9099 14.0289 21.5311 14.1264 21.2271 14.35C20.923 14.5736 20.7169 14.906 20.6521 15.2778L20.2561 18.0498H16.7281C16.3462 18.0498 15.9799 18.2015 15.7099 18.4716C15.4398 18.7416 15.2881 19.1079 15.2881 19.4898C15.2881 19.8717 15.4398 20.238 15.7099 20.508C15.9799 20.778 16.3462 20.9298 16.7281 20.9298H19.8361L19.0801 26.0418H15.6001C15.4008 26.0235 15.1998 26.0471 15.01 26.1108C14.8203 26.1746 14.646 26.2772 14.4981 26.4122C14.3503 26.547 14.2321 26.7114 14.1513 26.8946C14.0705 27.0777 14.0288 27.2756 14.0288 27.4758C14.0288 27.6759 14.0705 27.8739 14.1513 28.0571C14.2321 28.2402 14.3503 28.4045 14.4981 28.5395C14.646 28.6743 14.8203 28.7771 15.01 28.8408C15.1998 28.9046 15.4008 28.9281 15.6001 28.9098H18.6241L18.1561 32.4498C18.1041 32.8245 18.2004 33.2048 18.4245 33.5096C18.6486 33.8144 18.9829 34.0197 19.3561 34.0818H19.5721C19.9117 34.0809 20.2401 33.96 20.4993 33.7404C20.7583 33.5208 20.9314 33.2166 20.9881 32.8818L21.6001 28.9098H25.3921L24.8401 32.4498C24.7881 32.8245 24.8844 33.2048 25.1085 33.5096C25.3326 33.8144 25.6669 34.0197 26.0401 34.0818H26.2561C26.5957 34.0809 26.9241 33.96 27.1833 33.7404C27.4423 33.5208 27.6154 33.2166 27.6721 32.8818L28.2481 28.9818H31.2601C31.6177 28.9491 31.9503 28.7838 32.1924 28.5185C32.4346 28.2531 32.5687 27.9069 32.5687 27.5478C32.5687 27.1886 32.4346 26.8424 32.1924 26.5772C31.9503 26.3118 31.6177 26.1465 31.2601 26.1138H28.6801L29.4241 21.0018H32.4001C32.7916 21.0018 33.1669 20.8463 33.4438 20.5695C33.7206 20.2926 33.8761 19.9173 33.8761 19.5258C33.8761 19.1343 33.7206 18.7589 33.4438 18.4821C33.1669 18.2054 32.7916 18.0498 32.4001 18.0498H29.8801L30.2281 15.7098C30.2802 15.3351 30.1839 14.9548 29.9598 14.65C29.7355 14.3452 29.4013 14.1399 29.0281 14.0778C28.6548 14.026 28.276 14.1227 27.973 14.347C27.6702 14.5714 27.4674 14.9056 27.4081 15.2778L26.9401 18.0498H23.1601L23.4961 15.7098C23.551 15.3327 23.4544 14.9493 23.2272 14.6434C23.0001 14.3375 22.6609 14.1342 22.2841 14.0778ZM26.5201 20.9298L25.7761 26.0418H21.9841L22.8001 20.9298H26.5201Z" fill="#1D1C1D"/>
</svg>
