<svg width="48" height="49" viewBox="0 0 48 49" fill="none" xmlns="http://www.w3.org/2000/svg">
<path d="M42.0001 13.3459H29.9161V10.1539C29.9161 8.80128 29.3788 7.50408 28.4224 6.54764C27.4659 5.59121 26.1687 5.05389 24.8161 5.05389H6.00015C4.64851 5.05706 3.35314 5.59539 2.3974 6.55115C1.44165 7.50689 0.903314 8.80226 0.900146 10.1539V26.0778C0.900146 27.4305 1.43747 28.7277 2.39389 29.6841C3.35034 30.6405 4.64754 31.1778 6.00015 31.1778H7.92015V35.3058C7.91979 35.5923 8.0008 35.873 8.15376 36.1152C8.30673 36.3573 8.52534 36.5511 8.78415 36.6738C9.0462 36.7889 9.33483 36.8295 9.61843 36.7914C9.90204 36.7533 10.1697 36.638 10.3921 36.4578L16.7041 31.1778H18.0841V34.3578C18.0841 35.7137 18.6228 37.0139 19.5815 37.9727C20.5401 38.9313 21.8403 39.4698 23.1961 39.4698H31.2961L37.6081 44.7618C37.8823 44.9865 38.2257 45.1095 38.5802 45.1098C38.8002 45.1095 39.0174 45.0603 39.2162 44.9658C39.4731 44.844 39.6905 44.6522 39.8433 44.4122C39.9962 44.1723 40.0782 43.8942 40.0802 43.6098V39.4698H42.0001C43.3527 39.4698 44.6499 38.9325 45.6065 37.9761C46.5629 37.0197 47.1002 35.7225 47.1002 34.3698V18.4458C47.097 17.0943 46.5586 15.7989 45.6028 14.8431C44.6472 13.8874 43.3518 13.3491 42.0001 13.3459ZM16.1521 28.1778C15.8023 28.1838 15.4646 28.3062 15.1922 28.5258L10.9201 32.1258V29.7258C10.9201 29.328 10.7621 28.9466 10.4808 28.6652C10.1995 28.3839 9.81796 28.2258 9.42015 28.2258H6.00015C5.44318 28.2258 4.90905 28.0046 4.51522 27.6108C4.1214 27.2169 3.90015 26.6828 3.90015 26.1258V10.1539C3.9033 9.5979 4.12555 9.0656 4.5187 8.67245C4.91185 8.2793 5.44416 8.05704 6.00015 8.05389H24.8161C25.3731 8.05389 25.9073 8.27514 26.301 8.66897C26.6949 9.06279 26.9161 9.59693 26.9161 10.1539V26.0658C26.9161 26.3432 26.8616 26.6178 26.7554 26.8742C26.6493 27.1304 26.4936 27.3632 26.2976 27.5592C26.1015 27.7554 25.8685 27.911 25.6123 28.0172C25.3561 28.1232 25.0815 28.1778 24.8042 28.1778H16.1521ZM44.1002 34.3698C44.1002 34.9268 43.8789 35.4609 43.485 35.8548C43.0912 36.2486 42.5571 36.4698 42.0001 36.4698H38.5802C38.1824 36.4698 37.8008 36.6279 37.5195 36.9092C37.2383 37.1906 37.0802 37.572 37.0802 37.9698V40.3698L32.8082 36.7698C32.5409 36.5399 32.2006 36.4124 31.8481 36.4098H23.1961C22.636 36.4098 22.0988 36.1874 21.7028 35.7912C21.3066 35.3952 21.0841 34.8581 21.0841 34.2978V31.1778H24.8161C26.1687 31.1778 27.4659 30.6405 28.4224 29.6841C29.3788 28.7277 29.9161 27.4305 29.9161 26.0778V16.3578H42.0001C42.5562 16.361 43.0884 16.5833 43.4815 16.9764C43.8747 17.3696 44.097 17.9019 44.1002 18.4578V34.3698Z" fill="#1D1C1D"/>
<path d="M9.16815 16.3218C8.85412 16.3289 8.54917 16.4285 8.29149 16.6082C8.0338 16.7877 7.83486 17.0394 7.71955 17.3316C7.60426 17.6238 7.57774 17.9435 7.64334 18.2507C7.70892 18.5579 7.86369 18.8388 8.08827 19.0584C8.31283 19.278 8.59722 19.4265 8.9058 19.4853C9.21436 19.544 9.5334 19.5104 9.82294 19.3886C10.1125 19.2668 10.3596 19.0623 10.5335 18.8007C10.7073 18.539 10.8001 18.2319 10.8001 17.9178C10.8019 17.7047 10.7605 17.4935 10.6787 17.2967C10.5968 17.0999 10.4761 16.9217 10.3237 16.7726C10.1713 16.6236 9.99045 16.5069 9.79188 16.4294C9.59332 16.352 9.38118 16.3154 9.16815 16.3218Z" fill="#1D1C1D"/>
<path d="M15.4441 16.3218C15.129 16.3242 14.8216 16.4199 14.5607 16.5966C14.2998 16.7735 14.0971 17.0235 13.9782 17.3154C13.8592 17.6072 13.8293 17.9277 13.8922 18.2366C13.9552 18.5453 14.1081 18.8286 14.3318 19.0506C14.5555 19.2726 14.8399 19.4234 15.1491 19.484C15.4584 19.5446 15.7786 19.5123 16.0696 19.3913C16.3605 19.2701 16.6092 19.0655 16.7839 18.8033C16.9588 18.5411 17.0521 18.233 17.0521 17.9178C17.0521 17.7072 17.0104 17.4987 16.9294 17.3043C16.8486 17.1099 16.7299 16.9334 16.5804 16.785C16.431 16.6367 16.2535 16.5194 16.0585 16.4399C15.8635 16.3604 15.6547 16.3203 15.4441 16.3218Z" fill="#1D1C1D"/>
<path d="M21.732 19.5138C22.0476 19.5138 22.3563 19.4202 22.6187 19.2449C22.8812 19.0695 23.0858 18.8202 23.2065 18.5286C23.3273 18.237 23.3589 17.916 23.2974 17.6064C23.2358 17.2968 23.0838 17.0124 22.8606 16.7892C22.6374 16.566 22.353 16.4141 22.0434 16.3524C21.7338 16.2909 21.4128 16.3226 21.1212 16.4433C20.8296 16.5641 20.5803 16.7687 20.405 17.0312C20.2296 17.2935 20.136 17.6022 20.136 17.9178C20.1344 18.1278 20.1746 18.3362 20.2542 18.5304C20.3339 18.7248 20.4515 18.9014 20.6 19.0499C20.7485 19.1984 20.925 19.316 21.1194 19.3956C21.3137 19.4753 21.522 19.5155 21.732 19.5138Z" fill="#1D1C1D"/>
</svg>
